<svg
width="114"
height="64"
viewBox="0 0 114 64"
fill="none"
xmlns="http://www.w3.org/2000/svg"
focusable="true"
>
<title>Computer</title>
<path
    fill-rule="evenodd"
    clip-rule="evenodd"
    d="M13.5 3.5H100.5C102.157 3.5 103.5 4.84315 103.5 6.5V53H10.5V6.5C10.5 4.84315 11.8431 3.5 13.5 3.5ZM7.5 53V6.5C7.5 3.18629 10.1863 0.5 13.5 0.5H100.5C103.814 0.5 106.5 3.18629 106.5 6.5V53H114V57.5C114 60.8137 111.314 63.5 108 63.5H6C2.68629 63.5 0 60.8137 0 57.5V53H7.5ZM106.5 56H7.5H3V57.5C3 59.1569 4.34315 60.5 6 60.5H108C109.657 60.5 111 59.1569 111 57.5V56H106.5Z"
    fill="black"
></path>
</svg>