<svg
                                width="94"
                                height="89"
                                viewBox="0 0 94 89"
                                fill="none"
    xmlns="http://www.w3.org/2000/svg"
                                focusable="true"
                            >
                                <path
                                    fill-rule="evenodd"
                                    clip-rule="evenodd"
                                    d="M75.5 0H78.5V28.5C78.5 33.4706 74.4706 37.5 69.5 37.5C64.5294 37.5 60.5 33.4706 60.5 28.5V19.5C60.5 16.1863 57.8137 13.5 54.5 13.5C51.1863 13.5 48.5 16.1863 48.5 19.5V43.5H71C83.4264 43.5 93.5 53.5736 93.5 66C93.5 78.4264 83.4264 88.5 71 88.5C63.6388 88.5 57.1033 84.965 52.9984 79.5H41.0016C36.8967 84.965 30.3612 88.5 23 88.5C10.5736 88.5 0.5 78.4264 0.5 66C0.5 53.5736 10.5736 43.5 23 43.5H45.5V19.5C45.5 14.5294 49.5294 10.5 54.5 10.5C59.4706 10.5 63.5 14.5294 63.5 19.5V28.5C63.5 31.8137 66.1863 34.5 69.5 34.5C72.8137 34.5 75.5 31.8137 75.5 28.5V0ZM54.497 76.5H39.503L38.603 77.6983C35.0403 82.4414 29.3778 85.5 23 85.5C12.2304 85.5 3.5 76.7696 3.5 66C3.5 55.2304 12.2304 46.5 23 46.5H71C81.7696 46.5 90.5 55.2304 90.5 66C90.5 76.7696 81.7696 85.5 71 85.5C64.6222 85.5 58.9597 82.4414 55.397 77.6983L54.497 76.5ZM28.1213 63H32C32.8284 63 33.5 63.6716 33.5 64.5V67.5C33.5 68.3284 32.8284 69 32 69H28.1213L25.1213 66L28.1213 63ZM27.0607 61.9393C27.342 61.658 27.7235 61.5 28.1213 61.5H32C33.6569 61.5 35 62.8431 35 64.5V67.5C35 69.1569 33.6569 70.5 32 70.5H28.1213C27.7235 70.5 27.342 70.342 27.0607 70.0607L24.0607 67.0607C23.4749 66.4749 23.4749 65.5251 24.0607 64.9393L27.0607 61.9393ZM11 63H14.8787L17.8787 66L14.8787 69H11C10.1716 69 9.5 68.3284 9.5 67.5V64.5C9.5 63.6716 10.1716 63 11 63ZM14.8787 61.5C15.2765 61.5 15.658 61.658 15.9393 61.9393L18.9393 64.9393C19.5251 65.5251 19.5251 66.4749 18.9393 67.0607L15.7197 70.2803C15.579 70.421 15.3883 70.5 15.1893 70.5H11C9.34314 70.5 8 69.1569 8 67.5V64.5C8 62.8431 9.34314 61.5 11 61.5H14.8787ZM18.5 60.8787V57C18.5 56.1716 19.1716 55.5 20 55.5H23C23.8284 55.5 24.5 56.1716 24.5 57V60.8787L21.5 63.8787L18.5 60.8787ZM17.4393 61.9394C17.158 61.6581 17 61.2766 17 60.8787V57C17 55.3432 18.3431 54 20 54H23C24.6569 54 26 55.3432 26 57V60.8787C26 61.2766 25.842 61.6581 25.5607 61.9394L22.5607 64.9394C21.9749 65.5252 21.0251 65.5252 20.4393 64.9394L17.4393 61.9394ZM18.5 75V71.1213L21.5 68.1213L24.5 71.1213V75C24.5 75.8284 23.8284 76.5 23 76.5H20C19.1716 76.5 18.5 75.8284 18.5 75ZM17 71.1213C17 70.7234 17.158 70.3419 17.4393 70.0606L20.4393 67.0606C21.0251 66.4748 21.9749 66.4748 22.5607 67.0606L25.5607 70.0606C25.842 70.3419 26 70.7234 26 71.1213V75C26 76.6568 24.6569 78 23 78H20C18.3431 78 17 76.6568 17 75V71.1213ZM39.9393 67.3181C39.3535 67.9038 39.3535 68.8536 39.9393 69.4394C40.5251 70.0252 41.4749 70.0252 42.0607 69.4394L45.9393 65.5607C46.5251 64.9749 46.5251 64.0252 45.9393 63.4394C45.3535 62.8536 44.4038 62.8536 43.818 63.4394L39.9393 67.3181ZM48.9393 69.4394C48.3535 68.8536 48.3535 67.9038 48.9393 67.3181L52.818 63.4394C53.4038 62.8536 54.3536 62.8536 54.9393 63.4394C55.5251 64.0252 55.5251 64.9749 54.9393 65.5607L51.0607 69.4394C50.4749 70.0252 49.5251 70.0252 48.9393 69.4394ZM75.5 58.5C75.5 60.1569 74.1569 61.5 72.5 61.5C70.8431 61.5 69.5 60.1569 69.5 58.5C69.5 56.8431 70.8431 55.5 72.5 55.5C74.1569 55.5 75.5 56.8431 75.5 58.5ZM77 58.5C77 60.9853 74.9853 63 72.5 63C70.0147 63 68 60.9853 68 58.5C68 56.0147 70.0147 54 72.5 54C74.9853 54 77 56.0147 77 58.5ZM72.5 76.5C74.1569 76.5 75.5 75.1569 75.5 73.5C75.5 71.8431 74.1569 70.5 72.5 70.5C70.8431 70.5 69.5 71.8431 69.5 73.5C69.5 75.1569 70.8431 76.5 72.5 76.5ZM72.5 78C74.9853 78 77 75.9853 77 73.5C77 71.0147 74.9853 69 72.5 69C70.0147 69 68 71.0147 68 73.5C68 75.9853 70.0147 78 72.5 78ZM83 66C83 67.6569 81.6569 69 80 69C78.3431 69 77 67.6569 77 66C77 64.3431 78.3431 63 80 63C81.6569 63 83 64.3431 83 66ZM84.5 66C84.5 68.4853 82.4853 70.5 80 70.5C77.5147 70.5 75.5 68.4853 75.5 66C75.5 63.5147 77.5147 61.5 80 61.5C82.4853 61.5 84.5 63.5147 84.5 66ZM65 69C66.6569 69 68 67.6569 68 66C68 64.3431 66.6569 63 65 63C63.3431 63 62 64.3431 62 66C62 67.6569 63.3431 69 65 69ZM65 70.5C67.4853 70.5 69.5 68.4853 69.5 66C69.5 63.5147 67.4853 61.5 65 61.5C62.5147 61.5 60.5 63.5147 60.5 66C60.5 68.4853 62.5147 70.5 65 70.5Z"
                                    fill="black"
                                ></path>
                            </svg>