<svg
    width="82"
    height="70"
    viewBox="0 0 82 70"
    fill="none"
    xmlns="http://www.w3.org/2000/svg"
    focusable="true"
>
    <path
        fill-rule="evenodd"
        clip-rule="evenodd"
        d="M75.5 3.5H36.5C34.8431 3.5 33.5 4.84315 33.5 6.5V63.5C33.5 65.1569 34.8431 66.5 36.5 66.5H75.5C77.1569 66.5 78.5 65.1569 78.5 63.5V6.5C78.5 4.84315 77.1569 3.5 75.5 3.5ZM81.5 6.5C81.5 3.18629 78.8137 0.5 75.5 0.5H36.5C33.1863 0.5 30.5 3.18629 30.5 6.5V63.5C30.5 66.8137 33.1863 69.5 36.5 69.5H75.5C78.8137 69.5 81.5 66.8137 81.5 63.5V6.5ZM18.5 30.5H6.5C4.84315 30.5 3.5 31.8431 3.5 33.5V63.5C3.5 65.1569 4.84315 66.5 6.5 66.5H18.5C20.1569 66.5 21.5 65.1569 21.5 63.5V33.5C21.5 31.8431 20.1569 30.5 18.5 30.5ZM24.5 33.5C24.5 30.1863 21.8137 27.5 18.5 27.5H6.5C3.18629 27.5 0.5 30.1863 0.5 33.5V63.5C0.5 66.8137 3.18629 69.5 6.5 69.5H18.5C21.8137 69.5 24.5 66.8137 24.5 63.5V33.5ZM56 62C55.1716 62 54.5 61.3284 54.5 60.5C54.5 59.6716 55.1716 59 56 59C56.8284 59 57.5 59.6716 57.5 60.5C57.5 61.3284 56.8284 62 56 62ZM56 63.5C54.3431 63.5 53 62.1569 53 60.5C53 58.8431 54.3431 57.5 56 57.5C57.6569 57.5 59 58.8431 59 60.5C59 62.1569 57.6569 63.5 56 63.5ZM11 60.5C11 61.3284 11.6716 62 12.5 62C13.3284 62 14 61.3284 14 60.5C14 59.6716 13.3284 59 12.5 59C11.6716 59 11 59.6716 11 60.5ZM9.5 60.5C9.5 62.1569 10.8431 63.5 12.5 63.5C14.1568 63.5 15.5 62.1569 15.5 60.5C15.5 58.8431 14.1568 57.5 12.5 57.5C10.8431 57.5 9.5 58.8431 9.5 60.5Z"
        fill="black"
    ></path>
</svg>
