<svg
                                width="96"
                                height="89"
                                viewBox="0 0 96 89"
                                fill="none"
    xmlns="http://www.w3.org/2000/svg"
                                focusable="true"
                            >
                                <path
                                    fill-rule="evenodd"
                                    clip-rule="evenodd"
                                    d="M90 3.5H6C4.34315 3.5 3 4.84315 3 6.5V48.5C3 50.1569 4.34315 51.5 6 51.5H90C91.6569 51.5 93 50.1569 93 48.5V6.5C93 4.84315 91.6569 3.5 90 3.5ZM6 0.5C2.68629 0.5 0 3.18629 0 6.5V48.5C0 51.8137 2.68629 54.5 6 54.5H46.5V62H31.5C30.6716 62 30 62.6716 30 63.5C30 64.3284 30.6716 65 31.5 65H63C63.8284 65 64.5 64.3284 64.5 63.5C64.5 62.6716 63.8284 62 63 62H49.5V54.5H79.488L79.4873 54.5632V54.5636V54.5639V54.5643C79.4766 55.4328 79.4664 56.2623 79.489 56.9844C79.5254 58.1492 79.6463 59.3268 80.0945 60.3512C80.5785 61.4576 81.4022 62.2949 82.6262 62.8172C83.7776 63.3084 85.232 63.5 87 63.5C87.762 63.5 88.451 63.4814 89.0531 63.4651L89.0536 63.4651L89.0545 63.465H89.0546L89.2998 63.4585C89.973 63.4407 90.5033 63.431 90.9506 63.4515C91.8682 63.4937 92.0765 63.6556 92.1755 63.7636C92.3455 63.949 92.6158 64.4606 92.7869 65.9662C92.9518 67.4168 93 69.4921 93 72.5C93 73.9671 92.9048 74.9259 92.7266 75.5673C92.5622 76.1591 92.3585 76.3749 92.1679 76.5019C91.9166 76.6695 91.4657 76.8268 90.5609 76.913C89.9856 76.9678 89.3118 76.9881 88.5 76.9956V74C88.5 70.6863 85.8137 68 82.5 68H13.5C10.1863 68 7.5 70.6863 7.5 74V83C7.5 86.3137 10.1863 89 13.5 89H82.5C85.8137 89 88.5 86.3137 88.5 83V79.9959C89.3672 79.9881 90.154 79.9653 90.8453 79.8995C91.9093 79.7982 92.9584 79.5805 93.832 78.9981C94.7665 78.3751 95.3128 77.4659 95.6171 76.3702C95.9077 75.3241 96 74.0329 96 72.5C96 69.5079 95.9545 67.2707 95.7678 65.6275C95.5873 64.0394 95.2483 62.676 94.387 61.7364C93.4547 60.7194 92.2099 60.5063 91.0884 60.4547C90.5162 60.4284 89.8805 60.4421 89.2207 60.4595L88.9714 60.4662C88.3672 60.4825 87.7193 60.5 87 60.5C85.393 60.5 84.4099 60.3166 83.8035 60.0578C83.2697 59.8301 83.0152 59.5424 82.843 59.1488C82.6349 58.6732 82.5215 57.9758 82.4875 56.8906C82.4666 56.2217 82.4757 55.5146 82.4861 54.7077L82.4887 54.5H90C93.3137 54.5 96 51.8137 96 48.5V6.5C96 3.18629 93.3137 0.5 90 0.5H6ZM13.5 71H82.5C84.1569 71 85.5 72.3431 85.5 74V83C85.5 84.6569 84.1569 86 82.5 86H13.5C11.8431 86 10.5 84.6569 10.5 83V74C10.5 72.3431 11.8431 71 13.5 71ZM81 78.5C81 80.1569 79.6569 81.5 78 81.5C76.3431 81.5 75 80.1569 75 78.5C75 76.8431 76.3431 75.5 78 75.5C79.6569 75.5 81 76.8431 81 78.5ZM82.5 78.5C82.5 80.9853 80.4853 83 78 83C75.5147 83 73.5 80.9853 73.5 78.5C73.5 76.0147 75.5147 74 78 74C80.4853 74 82.5 76.0147 82.5 78.5ZM31.5 75.5H18C17.1716 75.5 16.5 76.1716 16.5 77V80C16.5 80.8284 17.1716 81.5 18 81.5H31.5C32.3284 81.5 33 80.8284 33 80V77C33 76.1716 32.3284 75.5 31.5 75.5ZM18 74C16.3431 74 15 75.3431 15 77V80C15 81.6569 16.3431 83 18 83H31.5C33.1569 83 34.5 81.6569 34.5 80V77C34.5 75.3431 33.1569 74 31.5 74H18Z"
                                    fill="black"
                                ></path>
                            </svg>