<svg
                                width="81"
                                height="85"
                                viewBox="0 0 81 85"
                                fill="none"
    xmlns="http://www.w3.org/2000/svg"
                                focusable="true"
                            >
                                <path
                                    fill-rule="evenodd"
                                    clip-rule="evenodd"
                                    d="M32.7979 11.559L30.9061 9.23059C37.6161 3.77207 46.1759 0.5 55.5 0.5C64.8241 0.5 73.3839 3.77207 80.0939 9.23059L78.2021 11.559C72.0082 6.52037 64.1068 3.5 55.5 3.5C46.8932 3.5 38.9918 6.52037 32.7979 11.559ZM55.5 8C63.031 8 69.9447 10.6428 75.3643 15.0516L73.4725 17.38C68.569 13.3911 62.3137 11 55.5 11C48.6863 11 42.431 13.3911 37.5275 17.38L35.6357 15.0516C41.0553 10.6428 47.969 8 55.5 8ZM55.5 15.5C61.2379 15.5 66.5055 17.5136 70.6347 20.8727L68.7429 23.2011C65.1298 20.2619 60.5207 18.5 55.5 18.5C50.4793 18.5 45.8702 20.2619 42.2571 23.2011L40.3653 20.8727C44.4945 17.5136 49.7621 15.5 55.5 15.5ZM48 33.5C48 31.8431 49.3431 30.5 51 30.5H60C61.6569 30.5 63 31.8431 63 33.5V78.5C63 80.1569 61.6569 81.5 60 81.5H51C49.3431 81.5 48 80.1569 48 78.5V33.5ZM45 33.5C45 30.1863 47.6863 27.5 51 27.5H60C63.3137 27.5 66 30.1863 66 33.5V78.5C66 81.8137 63.3137 84.5 60 84.5H51C47.6863 84.5 45 81.8137 45 78.5V33.5ZM6 59H34.5C36.1569 59 37.5 60.3431 37.5 62V78.5C37.5 80.1569 36.1569 81.5 34.5 81.5H6C4.34315 81.5 3 80.1569 3 78.5V62C3 60.3431 4.34315 59 6 59ZM0 62C0 58.6863 2.68629 56 6 56H34.5C37.8137 56 40.5 58.6863 40.5 62V78.5C40.5 81.8137 37.8137 84.5 34.5 84.5H6C2.68629 84.5 0 81.8137 0 78.5V62ZM55.5 45.5C57.1569 45.5 58.5 44.1569 58.5 42.5C58.5 40.8431 57.1569 39.5 55.5 39.5C53.8431 39.5 52.5 40.8431 52.5 42.5C52.5 44.1569 53.8431 45.5 55.5 45.5ZM55.5 47C57.9853 47 60 44.9853 60 42.5C60 40.0147 57.9853 38 55.5 38C53.0147 38 51 40.0147 51 42.5C51 44.9853 53.0147 47 55.5 47Z"
                                    fill="black"
                                ></path>
                            </svg>