<svg width="118" height="79" viewBox="0 0 118 79" fill="none" xmlns="http://www.w3.org/2000/svg">
    <path fill-rule="evenodd" clip-rule="evenodd" d="M111.5 3.5H6.5C4.84314 3.5 3.5 4.84315 3.5 6.5V60.5C3.5 62.1569 4.84315 63.5 6.5 63.5H111.5C113.157 63.5 114.5 62.1569 114.5 60.5V6.5C114.5 4.84315 113.157 3.5 111.5 3.5ZM6.5 0.5C3.18629 0.5 0.5 3.18629 0.5 6.5V60.5C0.5 63.8137 3.18629 66.5 6.5 66.5H57.5V75.5H36.5C35.6716 75.5 35 76.1716 35 77C35 77.8284 35.6716 78.5 36.5 78.5H81.5C82.3284 78.5 83 77.8284 83 77C83 76.1716 82.3284 75.5 81.5 75.5H60.5V66.5H111.5C114.814 66.5 117.5 63.8137 117.5 60.5V6.5C117.5 3.18629 114.814 0.5 111.5 0.5H6.5Z" fill="black"/>
</svg>